<svg width="25" height="24" viewBox="0 0 25 24" fill="none" xmlns="http://www.w3.org/2000/svg">
<path d="M23.6364 12C23.6364 18.35 18.4745 23.5 12.1043 23.5C5.73402 23.5 0.572189 18.35 0.572189 12C0.572189 5.64998 5.73402 0.5 12.1043 0.5C18.4745 0.5 23.6364 5.64998 23.6364 12Z" fill="#50973C" stroke="#50973C"/>
<path d="M10.5 14.1L8.75 12.35C8.70424 12.3037 8.64974 12.2669 8.58966 12.2418C8.52958 12.2167 8.46511 12.2038 8.4 12.2038C8.33489 12.2038 8.27042 12.2167 8.21034 12.2418C8.15026 12.2669 8.09576 12.3037 8.05 12.35C8.00368 12.3958 7.9669 12.4503 7.9418 12.5103C7.9167 12.5704 7.90378 12.6349 7.90378 12.7C7.90378 12.7651 7.9167 12.8296 7.9418 12.8897C7.9669 12.9497 8.00368 13.0042 8.05 13.05L10.145 15.145C10.34 15.34 10.655 15.34 10.85 15.145L16.15 9.85C16.1963 9.80424 16.2331 9.74974 16.2582 9.68966C16.2833 9.62958 16.2962 9.56512 16.2962 9.5C16.2962 9.43489 16.2833 9.37043 16.2582 9.31035C16.2331 9.25027 16.1963 9.19577 16.15 9.15C16.1042 9.10368 16.0497 9.06691 15.9897 9.04181C15.9296 9.01671 15.8651 9.00378 15.8 9.00378C15.7349 9.00378 15.6704 9.01671 15.6103 9.04181C15.5503 9.06691 15.4958 9.10368 15.45 9.15L10.5 14.1Z" fill="white"/>
</svg>
